<svg width="60" height="60" viewBox="0 0 60 60" fill="none" xmlns="http://www.w3.org/2000/svg">
<g id="material-symbols:kitchen-rounded">
<path id="Vector" d="M22.5 20C23.2083 20 23.8025 19.76 24.2825 19.28C24.7625 18.8 25.0017 18.2067 25 17.5V15C25 14.2917 24.76 13.6983 24.28 13.22C23.8 12.7417 23.2067 12.5017 22.5 12.5C21.7933 12.4983 21.2 12.7383 20.72 13.22C20.24 13.7017 20 14.295 20 15V17.5C20 18.2083 20.24 18.8025 20.72 19.2825C21.2 19.7625 21.7933 20.0017 22.5 20ZM22.5 42.5C23.2083 42.5 23.8025 42.26 24.2825 41.78C24.7625 41.3 25.0017 40.7067 25 40V32.5C25 31.7917 24.76 31.1983 24.28 30.72C23.8 30.2417 23.2067 30.0017 22.5 30C21.7933 29.9983 21.2 30.2383 20.72 30.72C20.24 31.2017 20 31.795 20 32.5V40C20 40.7083 20.24 41.3025 20.72 41.7825C21.2 42.2625 21.7933 42.5017 22.5 42.5ZM15 55C13.625 55 12.4483 54.5108 11.47 53.5325C10.4917 52.5542 10.0017 51.3767 10 50V27.5H50V50C50 51.375 49.5108 52.5525 48.5325 53.5325C47.5542 54.5125 46.3767 55.0017 45 55H15ZM10 22.5V10C10 8.625 10.49 7.44833 11.47 6.47C12.45 5.49167 13.6267 5.00167 15 5H45C46.375 5 47.5525 5.49 48.5325 6.47C49.5125 7.45 50.0017 8.62667 50 10V22.5H10Z" fill="#C5AC8D"/>
</g>
</svg>
