<svg width="60" height="60" viewBox="0 0 60 60" fill="none" xmlns="http://www.w3.org/2000/svg">
<g id="f7:tv-fill" clip-path="url(#clip0_561_201)">
<path id="Vector" d="M5.84357 46.1743H54.1564C58.0446 46.1743 60 44.31 60 40.3318V14.2757C60 10.2975 58.0446 8.43323 54.1564 8.43323H5.84357C1.95429 8.43216 0 10.2964 0 14.2757V40.3318C0 44.31 1.95536 46.1743 5.84357 46.1743ZM46.5396 52.4957C46.5396 51.3129 45.5861 50.3582 44.4257 50.3582H15.5293C14.3689 50.3582 13.4368 51.3118 13.4368 52.4947C13.4368 53.6775 14.3689 54.6322 15.5282 54.6322H44.4246C44.9883 54.6282 45.5273 54.401 45.9237 54.0004C46.3202 53.5997 46.5416 53.0593 46.5396 52.4957Z" fill="#C5AC8D"/>
</g>
<defs>
<clipPath id="clip0_561_201">
<rect width="60" height="60" fill="white"/>
</clipPath>
</defs>
</svg>
